<svg width="22" height="20" viewBox="0 0 22 20" fill="none" xmlns="http://www.w3.org/2000/svg">
<path d="M0.785714 4.1875H21.2143C21.6482 4.1875 22 3.85173 22 3.4375V1.5625C22 1.14827 21.6482 0.8125 21.2143 0.8125H0.785714C0.351754 0.8125 0 1.14827 0 1.5625V3.4375C0 3.85173 0.351754 4.1875 0.785714 4.1875ZM0.785714 11.6875H21.2143C21.6482 11.6875 22 11.3517 22 10.9375V9.0625C22 8.64827 21.6482 8.3125 21.2143 8.3125H0.785714C0.351754 8.3125 0 8.64827 0 9.0625V10.9375C0 11.3517 0.351754 11.6875 0.785714 11.6875ZM0.785714 19.1875H21.2143C21.6482 19.1875 22 18.8517 22 18.4375V16.5625C22 16.1483 21.6482 15.8125 21.2143 15.8125H0.785714C0.351754 15.8125 0 16.1483 0 16.5625V18.4375C0 18.8517 0.351754 19.1875 0.785714 19.1875Z" fill="#333333"/>
</svg>
