<svg width="42" height="42" viewBox="0 0 42 42" fill="none" xmlns="http://www.w3.org/2000/svg">
<circle cx="21" cy="21" r="20.5" fill="url(#paint0_linear)" stroke="#EF2EA2"/>
<path d="M21.0022 14.9792C18.1645 14.9792 15.8756 17.2074 15.8756 19.97C15.8756 22.7325 18.1645 24.9607 21.0022 24.9607C23.8399 24.9607 26.1288 22.7325 26.1288 19.97C26.1288 17.2074 23.8399 14.9792 21.0022 14.9792ZM21.0022 23.2146C19.1684 23.2146 17.6693 21.7595 17.6693 19.97C17.6693 18.1804 19.164 16.7253 21.0022 16.7253C22.8405 16.7253 24.3352 18.1804 24.3352 19.97C24.3352 21.7595 22.836 23.2146 21.0022 23.2146ZM27.5343 14.775C27.5343 15.4222 26.9989 15.9391 26.3385 15.9391C25.6737 15.9391 25.1428 15.4179 25.1428 14.775C25.1428 14.1322 25.6782 13.6109 26.3385 13.6109C26.9989 13.6109 27.5343 14.1322 27.5343 14.775ZM30.9297 15.9565C30.8539 14.3971 30.488 13.0159 29.3146 11.8779C28.1456 10.7398 26.7267 10.3837 25.1249 10.3055C23.4741 10.2143 18.5259 10.2143 16.8751 10.3055C15.2777 10.3793 13.8589 10.7355 12.6854 11.8735C11.512 13.0115 11.1506 14.3928 11.0703 15.9521C10.9766 17.5593 10.9766 22.3763 11.0703 23.9834C11.1461 25.5428 11.512 26.924 12.6854 28.0621C13.8589 29.2001 15.2733 29.5562 16.8751 29.6344C18.5259 29.7256 23.4741 29.7256 25.1249 29.6344C26.7267 29.5606 28.1456 29.2044 29.3146 28.0621C30.4835 26.924 30.8494 25.5428 30.9297 23.9834C31.0234 22.3763 31.0234 17.5636 30.9297 15.9565ZM28.797 25.7078C28.449 26.5592 27.7752 27.2151 26.8963 27.5582C25.58 28.0664 22.4568 27.9491 21.0022 27.9491C19.5477 27.9491 16.42 28.0621 15.1082 27.5582C14.2337 27.2194 13.56 26.5635 13.2075 25.7078C12.6854 24.4265 12.8059 21.386 12.8059 19.97C12.8059 18.5539 12.6899 15.5091 13.2075 14.2321C13.5555 13.3807 14.2292 12.7248 15.1082 12.3817C16.4244 11.8735 19.5477 11.9908 21.0022 11.9908C22.4568 11.9908 25.5845 11.8779 26.8963 12.3817C27.7708 12.7205 28.4445 13.3764 28.797 14.2321C29.319 15.5134 29.1985 18.5539 29.1985 19.97C29.1985 21.386 29.319 24.4308 28.797 25.7078Z" fill="white"/>
<defs>
<linearGradient id="paint0_linear" x1="21" y1="1" x2="14.9394" y2="47.0606" gradientUnits="userSpaceOnUse">
<stop stop-color="#EF2EA2"/>
<stop offset="1" stop-color="#E0A22B"/>
</linearGradient>
</defs>
</svg>
