<svg width="12" height="13" viewBox="0 0 12 13" fill="none" xmlns="http://www.w3.org/2000/svg">
<path d="M6.09656 0.20459C2.88562 0.20459 0.284058 3.04266 0.284058 6.5455C0.284058 10.0483 2.88562 12.8864 6.09656 12.8864C9.3075 12.8864 11.9091 10.0483 11.9091 6.5455C11.9091 3.04266 9.3075 0.20459 6.09656 0.20459ZM7.43484 9.15601L5.36765 7.51709C5.29499 7.45828 5.25281 7.36624 5.25281 7.26908V2.96595C5.25281 2.7972 5.37937 2.65914 5.53406 2.65914H6.65906C6.81375 2.65914 6.94031 2.7972 6.94031 2.96595V6.48669L8.42859 7.66794C8.55515 7.76766 8.58093 7.95942 8.48953 8.09749L7.82859 9.08953C7.73718 9.22505 7.5614 9.25573 7.43484 9.15601Z" fill="#333333"/>
</svg>
