<svg width="8" height="12" viewBox="0 0 8 12" fill="none" xmlns="http://www.w3.org/2000/svg">
<path fill-rule="evenodd" clip-rule="evenodd" d="M1.00496 4.99509L5.59796 0.402091C5.68956 0.308591 5.79876 0.234291 5.91926 0.183291C6.03976 0.132291 6.16916 0.105691 6.30006 0.104991C6.43086 0.104391 6.56056 0.129691 6.68156 0.179391C6.80256 0.229191 6.91256 0.30249 7.00506 0.39499C7.09756 0.48749 7.17086 0.59749 7.22066 0.71849C7.27036 0.83949 7.29566 0.96919 7.29506 1.09999C7.29436 1.23089 7.26776 1.36029 7.21676 1.48079C7.16576 1.60129 7.09146 1.71049 6.99796 1.80209L3.09796 5.70209L6.99796 9.60209C7.18056 9.78839 7.28216 10.0392 7.28086 10.3C7.27956 10.5609 7.17536 10.8106 6.99096 10.9951C6.80646 11.1795 6.55676 11.2837 6.29586 11.285C6.03506 11.2863 5.78426 11.1847 5.59796 11.0021L1.00496 6.41009C0.817459 6.22259 0.712158 5.96829 0.712158 5.70309C0.712158 5.43789 0.817459 5.18359 1.00496 4.99609V4.99509Z" fill="#A5ADBA"/>
</svg>
