<svg width="8" height="12" viewBox="0 0 8 12" fill="none" xmlns="http://www.w3.org/2000/svg">
<path fill-rule="evenodd" clip-rule="evenodd" d="M6.995 4.99505C7.182 5.18255 7.288 5.43685 7.288 5.70205C7.288 5.96725 7.182 6.22155 6.995 6.40905L2.40202 11.0021C2.21602 11.1847 1.96502 11.2863 1.70402 11.285C1.44302 11.2837 1.19301 11.1795 1.00901 10.9951C0.82501 10.8106 0.720001 10.5609 0.719001 10.3C0.718001 10.0392 0.819022 9.78835 1.00202 9.60205L4.90202 5.70205L1.00202 1.80205C0.819022 1.61575 0.718001 1.36495 0.719001 1.10415C0.720001 0.843252 0.82501 0.593553 1.00901 0.409053C1.19301 0.224653 1.44302 0.120453 1.70402 0.119153C1.96502 0.117853 2.21602 0.219453 2.40202 0.402053L6.995 4.99505Z" fill="#A5ADBA"/>
</svg>
