<svg width="18" height="17" viewBox="0 0 18 17" fill="none" xmlns="http://www.w3.org/2000/svg">
<path d="M17.625 6.1563L12.125 0.406349C11.375 -0.406151 10 0.125099 10 1.28135V4.03135C4.8125 4.09385 0 5.03135 0 10.3751C0 13.3439 1.71875 15.0626 2.78125 15.8126C3.53125 16.3751 4.59375 15.6563 4.3125 14.7501C3.125 10.5313 5.15625 10.0626 10 10.0313V12.7501C10 13.9063 11.375 14.4376 12.125 13.6251L17.625 7.8751C18.0938 7.4063 18.0938 6.6251 17.625 6.1563ZM16.9062 7.1876L11.4062 12.9376C11.25 13.0939 11 13.0001 11 12.7501V9.0001C5.625 9.0001 1.75 9.3126 3.375 15.0001C2.25 14.1876 1 12.6876 1 10.3751C1 5.3751 6.0625 5.0001 11 5.0001V1.2501C11 1.03135 11.25 0.937599 11.4062 1.09385L16.9062 6.8439C16.9688 6.8751 17 6.9689 17 7.0001C17 7.0626 16.9688 7.1563 16.9062 7.1876Z" fill="#4F4F4F"/>
</svg>
